<svg width="287" height="53" viewBox="0 0 287 53" fill="none" xmlns="http://www.w3.org/2000/svg">
<circle cx="17.466" cy="34.3444" r="6.93777" fill="#3241CD"/>
<circle cx="83.4934" cy="34.3444" r="6.93777" fill="#3241CD"/>
<path d="M34.9281 33.8461C34.9281 43.4912 27.1092 51.3102 17.464 51.3102C7.81892 51.3102 0 43.4912 0 33.8461C0 24.201 7.81892 16.3821 17.464 16.3821C27.1092 16.3821 34.9281 24.201 34.9281 33.8461ZM4.63648 33.8461C4.63648 40.9306 10.3796 46.6737 17.464 46.6737C24.5485 46.6737 30.2916 40.9306 30.2916 33.8461C30.2916 26.7617 24.5485 21.0186 17.464 21.0186C10.3796 21.0186 4.63648 26.7617 4.63648 33.8461Z" fill="#3241CD"/>
<path d="M100 33.8461C100 43.4912 92.1811 51.3102 82.536 51.3102C72.8908 51.3102 65.0719 43.4912 65.0719 33.8461C65.0719 24.201 72.8908 16.3821 82.536 16.3821C92.1811 16.3821 100 24.201 100 33.8461ZM69.7084 33.8461C69.7084 40.9306 75.4515 46.6737 82.536 46.6737C89.6204 46.6737 95.3635 40.9306 95.3635 33.8461C95.3635 26.7617 89.6204 21.0186 82.536 21.0186C75.4515 21.0186 69.7084 26.7617 69.7084 33.8461Z" fill="#3241CD"/>
<path d="M7.89693 16.3944L21.5332 10.8921C20.656 8.41998 19.0452 2.85382 19.6194 0.365791C20.3371 -2.74424 5.98307 14.959 7.89693 16.3944Z" fill="#3241CD"/>
<path d="M12.9208 17.1122L45.2173 5.15052L52.3943 10.8921L94.2602 3.23666L53.112 29.5523L44.0212 22.6146L33.0164 28.3561L30.6241 24.2892L45.2173 16.6337L53.112 22.6146L67.2268 14.0022L50.9589 16.6337L44.4996 11.8491L23.9256 19.0261L12.9208 17.1122Z" fill="#3241CD"/>
<path d="M141.656 37L138.776 32.95C138.452 32.986 138.116 33.004 137.768 33.004H134.384V37H133.052V24.4H137.768C139.376 24.4 140.636 24.784 141.548 25.552C142.46 26.32 142.916 27.376 142.916 28.72C142.916 29.704 142.664 30.538 142.16 31.222C141.668 31.894 140.96 32.38 140.036 32.68L143.114 37H141.656ZM137.732 31.87C138.98 31.87 139.934 31.594 140.594 31.042C141.254 30.49 141.584 29.716 141.584 28.72C141.584 27.7 141.254 26.92 140.594 26.38C139.934 25.828 138.98 25.552 137.732 25.552H134.384V31.87H137.732ZM145.79 27.532H147.068V37H145.79V27.532ZM146.438 25.462C146.174 25.462 145.952 25.372 145.772 25.192C145.592 25.012 145.502 24.796 145.502 24.544C145.502 24.304 145.592 24.094 145.772 23.914C145.952 23.734 146.174 23.644 146.438 23.644C146.702 23.644 146.924 23.734 147.104 23.914C147.284 24.082 147.374 24.286 147.374 24.526C147.374 24.79 147.284 25.012 147.104 25.192C146.924 25.372 146.702 25.462 146.438 25.462ZM159.264 23.644V37H158.04V35.128C157.656 35.764 157.146 36.25 156.51 36.586C155.886 36.922 155.178 37.09 154.386 37.09C153.498 37.09 152.694 36.886 151.974 36.478C151.254 36.07 150.69 35.5 150.282 34.768C149.874 34.036 149.67 33.202 149.67 32.266C149.67 31.33 149.874 30.496 150.282 29.764C150.69 29.032 151.254 28.468 151.974 28.072C152.694 27.664 153.498 27.46 154.386 27.46C155.154 27.46 155.844 27.622 156.456 27.946C157.08 28.258 157.59 28.72 157.986 29.332V23.644H159.264ZM154.494 35.956C155.154 35.956 155.748 35.806 156.276 35.506C156.816 35.194 157.236 34.756 157.536 34.192C157.848 33.628 158.004 32.986 158.004 32.266C158.004 31.546 157.848 30.904 157.536 30.34C157.236 29.776 156.816 29.344 156.276 29.044C155.748 28.732 155.154 28.576 154.494 28.576C153.822 28.576 153.216 28.732 152.676 29.044C152.148 29.344 151.728 29.776 151.416 30.34C151.116 30.904 150.966 31.546 150.966 32.266C150.966 32.986 151.116 33.628 151.416 34.192C151.728 34.756 152.148 35.194 152.676 35.506C153.216 35.806 153.822 35.956 154.494 35.956ZM171.067 32.662H163.147C163.219 33.646 163.597 34.444 164.281 35.056C164.965 35.656 165.829 35.956 166.873 35.956C167.461 35.956 168.001 35.854 168.493 35.65C168.985 35.434 169.411 35.122 169.771 34.714L170.491 35.542C170.071 36.046 169.543 36.43 168.907 36.694C168.283 36.958 167.593 37.09 166.837 37.09C165.865 37.09 165.001 36.886 164.245 36.478C163.501 36.058 162.919 35.482 162.499 34.75C162.079 34.018 161.869 33.19 161.869 32.266C161.869 31.342 162.067 30.514 162.463 29.782C162.871 29.05 163.423 28.48 164.119 28.072C164.827 27.664 165.619 27.46 166.495 27.46C167.371 27.46 168.157 27.664 168.853 28.072C169.549 28.48 170.095 29.05 170.491 29.782C170.887 30.502 171.085 31.33 171.085 32.266L171.067 32.662ZM166.495 28.558C165.583 28.558 164.815 28.852 164.191 29.44C163.579 30.016 163.231 30.772 163.147 31.708H169.861C169.777 30.772 169.423 30.016 168.799 29.44C168.187 28.852 167.419 28.558 166.495 28.558ZM176.224 37.09C175.456 37.09 174.718 36.982 174.01 36.766C173.314 36.538 172.768 36.256 172.372 35.92L172.948 34.912C173.344 35.224 173.842 35.482 174.442 35.686C175.042 35.878 175.666 35.974 176.314 35.974C177.178 35.974 177.814 35.842 178.222 35.578C178.642 35.302 178.852 34.918 178.852 34.426C178.852 34.078 178.738 33.808 178.51 33.616C178.282 33.412 177.994 33.262 177.646 33.166C177.298 33.058 176.836 32.956 176.26 32.86C175.492 32.716 174.874 32.572 174.406 32.428C173.938 32.272 173.536 32.014 173.2 31.654C172.876 31.294 172.714 30.796 172.714 30.16C172.714 29.368 173.044 28.72 173.704 28.216C174.364 27.712 175.282 27.46 176.458 27.46C177.07 27.46 177.682 27.544 178.294 27.712C178.906 27.868 179.41 28.078 179.806 28.342L179.248 29.368C178.468 28.828 177.538 28.558 176.458 28.558C175.642 28.558 175.024 28.702 174.604 28.99C174.196 29.278 173.992 29.656 173.992 30.124C173.992 30.484 174.106 30.772 174.334 30.988C174.574 31.204 174.868 31.366 175.216 31.474C175.564 31.57 176.044 31.672 176.656 31.78C177.412 31.924 178.018 32.068 178.474 32.212C178.93 32.356 179.32 32.602 179.644 32.95C179.968 33.298 180.13 33.778 180.13 34.39C180.13 35.218 179.782 35.878 179.086 36.37C178.402 36.85 177.448 37.09 176.224 37.09ZM196.384 35.848V37H187.474V24.4H196.114V25.552H188.806V30.034H195.322V31.168H188.806V35.848H196.384ZM199.245 23.644H200.523V37H199.245V23.644ZM212.323 32.662H204.403C204.475 33.646 204.853 34.444 205.537 35.056C206.221 35.656 207.085 35.956 208.129 35.956C208.717 35.956 209.257 35.854 209.749 35.65C210.241 35.434 210.667 35.122 211.027 34.714L211.747 35.542C211.327 36.046 210.799 36.43 210.163 36.694C209.539 36.958 208.849 37.09 208.093 37.09C207.121 37.09 206.257 36.886 205.501 36.478C204.757 36.058 204.175 35.482 203.755 34.75C203.335 34.018 203.125 33.19 203.125 32.266C203.125 31.342 203.323 30.514 203.719 29.782C204.127 29.05 204.679 28.48 205.375 28.072C206.083 27.664 206.875 27.46 207.751 27.46C208.627 27.46 209.413 27.664 210.109 28.072C210.805 28.48 211.351 29.05 211.747 29.782C212.143 30.502 212.341 31.33 212.341 32.266L212.323 32.662ZM207.751 28.558C206.839 28.558 206.071 28.852 205.447 29.44C204.835 30.016 204.487 30.772 204.403 31.708H211.117C211.033 30.772 210.679 30.016 210.055 29.44C209.443 28.852 208.675 28.558 207.751 28.558ZM218.866 37.09C217.93 37.09 217.09 36.886 216.346 36.478C215.614 36.07 215.038 35.5 214.618 34.768C214.198 34.024 213.988 33.19 213.988 32.266C213.988 31.342 214.198 30.514 214.618 29.782C215.038 29.05 215.614 28.48 216.346 28.072C217.09 27.664 217.93 27.46 218.866 27.46C219.682 27.46 220.408 27.622 221.044 27.946C221.692 28.258 222.202 28.72 222.574 29.332L221.62 29.98C221.308 29.512 220.912 29.164 220.432 28.936C219.952 28.696 219.43 28.576 218.866 28.576C218.182 28.576 217.564 28.732 217.012 29.044C216.472 29.344 216.046 29.776 215.734 30.34C215.434 30.904 215.284 31.546 215.284 32.266C215.284 32.998 215.434 33.646 215.734 34.21C216.046 34.762 216.472 35.194 217.012 35.506C217.564 35.806 218.182 35.956 218.866 35.956C219.43 35.956 219.952 35.842 220.432 35.614C220.912 35.386 221.308 35.038 221.62 34.57L222.574 35.218C222.202 35.83 221.692 36.298 221.044 36.622C220.396 36.934 219.67 37.09 218.866 37.09ZM230.176 36.424C229.936 36.64 229.636 36.808 229.276 36.928C228.928 37.036 228.562 37.09 228.178 37.09C227.29 37.09 226.606 36.85 226.126 36.37C225.646 35.89 225.406 35.212 225.406 34.336V28.612H223.714V27.532H225.406V25.462H226.684V27.532H229.564V28.612H226.684V34.264C226.684 34.828 226.822 35.26 227.098 35.56C227.386 35.848 227.794 35.992 228.322 35.992C228.586 35.992 228.838 35.95 229.078 35.866C229.33 35.782 229.546 35.662 229.726 35.506L230.176 36.424ZM233.727 29.386C234.027 28.75 234.471 28.27 235.059 27.946C235.659 27.622 236.397 27.46 237.273 27.46V28.702L236.967 28.684C235.971 28.684 235.191 28.99 234.627 29.602C234.063 30.214 233.781 31.072 233.781 32.176V37H232.503V27.532H233.727V29.386ZM243.369 37.09C242.457 37.09 241.635 36.886 240.903 36.478C240.171 36.058 239.595 35.482 239.175 34.75C238.755 34.018 238.545 33.19 238.545 32.266C238.545 31.342 238.755 30.514 239.175 29.782C239.595 29.05 240.171 28.48 240.903 28.072C241.635 27.664 242.457 27.46 243.369 27.46C244.281 27.46 245.103 27.664 245.835 28.072C246.567 28.48 247.137 29.05 247.545 29.782C247.965 30.514 248.175 31.342 248.175 32.266C248.175 33.19 247.965 34.018 247.545 34.75C247.137 35.482 246.567 36.058 245.835 36.478C245.103 36.886 244.281 37.09 243.369 37.09ZM243.369 35.956C244.041 35.956 244.641 35.806 245.169 35.506C245.709 35.194 246.129 34.756 246.429 34.192C246.729 33.628 246.879 32.986 246.879 32.266C246.879 31.546 246.729 30.904 246.429 30.34C246.129 29.776 245.709 29.344 245.169 29.044C244.641 28.732 244.041 28.576 243.369 28.576C242.697 28.576 242.091 28.732 241.551 29.044C241.023 29.344 240.603 29.776 240.291 30.34C239.991 30.904 239.841 31.546 239.841 32.266C239.841 32.986 239.991 33.628 240.291 34.192C240.603 34.756 241.023 35.194 241.551 35.506C242.091 35.806 242.697 35.956 243.369 35.956Z" fill="black"/>
</svg>
